<svg width="80" height="78" viewBox="0 0 80 78" fill="none" xmlns="http://www.w3.org/2000/svg">
<path d="M79.9975 58.398V70.1401C80.0021 71.2302 79.7726 72.3092 79.3238 73.3079C78.875 74.3067 78.2168 75.2033 77.3913 75.9402C76.5659 76.6771 75.5913 77.2382 74.5301 77.5874C73.4689 77.9366 72.3444 78.0663 71.2287 77.9682C58.8512 76.6595 46.9617 72.5439 36.5156 65.9521C26.7969 59.9427 18.5571 51.9248 12.3813 42.4678C5.58344 32.2569 1.35297 20.6313 0.0326485 8.533C-0.0678688 7.45064 0.0643244 6.35977 0.42081 5.32984C0.777295 4.29992 1.35026 3.3535 2.10323 2.55086C2.8562 1.74821 3.77267 1.10692 4.7943 0.667811C5.81593 0.228704 6.92033 0.00140292 8.03718 0.000379476H20.1043C22.0564 -0.0183158 23.9489 0.654333 25.429 1.89295C26.9091 3.13157 27.8759 4.85163 28.1491 6.73254C28.6584 10.4903 29.603 14.1799 30.9647 17.731C31.5059 19.1319 31.623 20.6545 31.3022 22.1182C30.9814 23.5819 30.2361 24.9255 29.1547 25.9897L24.0462 30.9605C29.7723 40.7595 38.1103 48.8729 48.1805 54.4448L53.2889 49.474C54.3826 48.4216 55.7633 47.6964 57.2675 47.3842C58.7718 47.072 60.3364 47.186 61.7761 47.7126C65.4255 49.0377 69.2173 49.9569 73.079 50.4525C75.033 50.7207 76.8174 51.6784 78.0931 53.1434C79.3687 54.6083 80.0465 56.4784 79.9975 58.398Z" stroke="white" stroke-width="9" stroke-linecap="round" stroke-linejoin="round"/>
</svg>
