<svg width="72" height="71" viewBox="0 0 72 71" fill="none" xmlns="http://www.w3.org/2000/svg">
<path d="M55.5417 15.9375H55.5775M17.9167 0H53.75C63.6451 0 71.6667 7.92829 71.6667 17.7083V53.125C71.6667 62.905 63.6451 70.8333 53.75 70.8333H17.9167C8.02157 70.8333 0 62.905 0 53.125V17.7083C0 7.92829 8.02157 0 17.9167 0ZM50.1667 33.1854C50.6089 36.133 50.0995 39.1433 48.711 41.7882C47.3224 44.4331 45.1254 46.5779 42.4325 47.9176C39.7395 49.2573 36.6878 49.7236 33.7112 49.2502C30.7347 48.7768 27.985 47.3878 25.8532 45.2808C23.7214 43.1738 22.316 40.456 21.8371 37.5141C21.3581 34.5722 21.8299 31.5559 23.1853 28.8942C24.5408 26.2326 26.7108 24.0612 29.3869 22.6888C32.0629 21.3164 35.1086 20.8129 38.0908 21.25C41.1328 21.6958 43.949 23.0968 46.1236 25.2461C48.2981 27.3953 49.7156 30.1788 50.1667 33.1854Z" stroke="white" stroke-width="7" stroke-linecap="round" stroke-linejoin="round"/>
</svg>
