<svg width="86" height="69" viewBox="0 0 86 69" fill="none" xmlns="http://www.w3.org/2000/svg">
<path d="M8.6 69C6.235 69 4.21042 68.1555 2.52625 66.4664C0.842083 64.7773 0 62.7469 0 60.375V8.625C0 6.25313 0.842083 4.22266 2.52625 2.53359C4.21042 0.844531 6.235 0 8.6 0H77.4C79.765 0 81.7896 0.844531 83.4738 2.53359C85.1579 4.22266 86 6.25313 86 8.625V60.375C86 62.7469 85.1579 64.7773 83.4738 66.4664C81.7896 68.1555 79.765 69 77.4 69H8.6ZM43 38.8125L8.6 17.25V60.375H77.4V17.25L43 38.8125ZM43 30.1875L77.4 8.625H8.6L43 30.1875ZM8.6 17.25V8.625V60.375V17.25Z" fill="white"/>
</svg>
