<svg width="96" height="70" viewBox="0 0 96 70" fill="none" xmlns="http://www.w3.org/2000/svg">
<path d="M96 0.0392283C91.8213 2.67433 87.1947 4.68976 82.2982 6.0079C79.6701 3.30644 76.1775 1.39171 72.2925 0.522676C68.4076 -0.346355 64.3178 -0.127756 60.5764 1.14891C56.8349 2.42557 53.6223 4.6987 51.373 7.66086C49.1237 10.623 47.9463 14.1313 48 17.7112V21.6123C40.3315 21.79 32.7328 20.2696 25.8808 17.1863C19.0287 14.103 13.1359 9.55258 8.72727 3.94032C8.72727 3.94032 -8.72727 39.0502 30.5455 54.6545C21.5587 60.1081 10.853 62.8427 0 62.4567C39.2727 81.9622 87.2727 62.4567 87.2727 17.5942C87.2687 16.5075 87.1518 15.4236 86.9236 14.3562C91.3772 10.4298 94.52 5.47233 96 0.0392283Z" stroke="white" stroke-width="7" stroke-linecap="round" stroke-linejoin="round"/>
</svg>
