<svg width="92" height="62" viewBox="0 0 92 62" fill="none" xmlns="http://www.w3.org/2000/svg">
<path d="M90.0741 9.70505C89.5774 7.80177 88.5657 6.05792 87.1413 4.64962C85.7169 3.24133 83.9303 2.21846 81.9618 1.68435C74.7694 4.04954e-07 46 0 46 0C46 0 17.2306 1.34985e-07 10.0382 1.84476C8.06973 2.37888 6.28306 3.40174 4.85868 4.81004C3.4343 6.21833 2.42265 7.96219 1.92593 9.86546C0.60962 16.8657 -0.0342575 23.9671 0.00239039 31.0802C-0.0445301 38.2469 0.599388 45.4024 1.92593 52.4554C2.47355 54.2995 3.50785 55.977 4.92892 57.3259C6.34998 58.6747 8.10976 59.6492 10.0382 60.1552C17.2306 62 46 62 46 62C46 62 74.7694 62 81.9618 60.1552C83.9303 59.6211 85.7169 58.5983 87.1413 57.19C88.5657 55.7817 89.5774 54.0378 90.0741 52.1345C91.3802 45.187 92.0241 38.1398 91.9976 31.0802C92.0445 23.9135 91.4006 16.758 90.0741 9.70505Z" stroke="white" stroke-width="6" stroke-linecap="round" stroke-linejoin="round"/>
<path d="M36.5914 44.1941L60.6356 31.0802L36.5914 17.9664V44.1941Z" stroke="white" stroke-width="6" stroke-linecap="round" stroke-linejoin="round"/>
</svg>
